# xmcd
#
# Track frame offsets:
#	150
#	14984
#	33735
#	55914
#	83947
#	95611
#	109207
#	127053
#	156127
#
# Disc length: 2248 seconds
#
# Revision: 0
# Processed by: cddbd v1.5.1PL2 Copyright (c) Steve Scherf et al.
# Submitted via: audiograbber 1.83.01
#
DISCID=7f08c609
DTITLE=Time For Three - Time For Three
DYEAR=1900
DGENRE=Bluegrass
TTITLE0=Ragtime Annie
TTITLE1=Csardas
TTITLE2=Orange Blossom Special
TTITLE3=Ashoken Farewell/Amazing Grace
TTITLE4=Bach Double
TTITLE5=Jerusalem's Ridge
TTITLE6=Mowhawk
TTITLE7=Hungarian Dance
TTITLE8=Samuel
EXTD=
EXTT0=
EXTT1=
EXTT2=
EXTT3=
EXTT4=
EXTT5=
EXTT6=
EXTT7=
EXTT8=
PLAYORDER=
